<svg width="40" height="50" viewBox="0 0 40 50" fill="none" xmlns="http://www.w3.org/2000/svg">
<path id="&#208;&#154;&#208;&#190;&#209;&#128;&#208;&#183;&#208;&#184;&#208;&#189;&#208;&#176;" fill-rule="evenodd" clip-rule="evenodd" d="M27.5 8.5H30H32H35.5C36.6046 8.5 37.5 9.39543 37.5 10.5C37.5 11.3669 36.9471 12.1111 36.1669 12.3868L35.8467 12.5H34.5H5.5H4.15327L3.83312 12.3868C3.05295 12.1111 2.5 11.3669 2.5 10.5C2.5 9.39543 3.39543 8.5 4.5 8.5H8H10H12.5H27.5ZM37 15V14.7439C38.7478 14.1262 40 12.4593 40 10.5C40 8.01472 37.9853 6 35.5 6H32.5H32H30V5C30 2.23858 27.7614 0 25 0H15C12.2386 0 10 2.23858 10 5V6H8H7.5H4.5C2.01472 6 0 8.01472 0 10.5C0 12.4593 1.25221 14.1262 3 14.7439V15V45C3 47.7614 5.23858 50 8 50H32C34.7614 50 37 47.7614 37 45V15ZM12.5 6H15H25H27.5V5C27.5 4.4372 27.314 3.91783 27.0002 3.5C26.5441 2.89278 25.8179 2.5 25 2.5H15C14.1821 2.5 13.4559 2.89278 12.9998 3.5C12.686 3.91783 12.5 4.4372 12.5 5V6ZM34.5 45C34.5 46.3807 33.3807 47.5 32 47.5H8C6.61929 47.5 5.5 46.3807 5.5 45V17.5V15H8H32H34.5V17.5V45ZM11.5 42C11.5 42.6904 12.0596 43.25 12.75 43.25C13.4404 43.25 14 42.6904 14 42L14 20C14 19.3096 13.4404 18.75 12.75 18.75C12.0596 18.75 11.5 19.3096 11.5 20L11.5 42ZM27 43.25C26.3096 43.25 25.75 42.6904 25.75 42L25.75 20C25.75 19.3096 26.3096 18.75 27 18.75C27.6904 18.75 28.25 19.3096 28.25 20L28.25 42C28.25 42.6904 27.6904 43.25 27 43.25ZM18.75 39C18.75 39.6904 19.3096 40.25 20 40.25C20.6904 40.25 21.25 39.6904 21.25 39V23C21.25 22.3096 20.6904 21.75 20 21.75C19.3096 21.75 18.75 22.3096 18.75 23V39Z" fill="#498783"/>
</svg>
