<svg width="24" height="18" viewBox="0 0 24 18" fill="none" xmlns="http://www.w3.org/2000/svg">
<path d="M21.0275 3.02829C19.3762 1.72717 17.3945 1.07665 15.3028 0.968216L14.9725 1.29351C16.844 1.72717 18.4954 2.59456 20.0367 3.78725C18.1651 2.81143 16.0734 2.1609 13.8715 1.94404C13.211 1.8356 12.6605 1.8356 12 1.8356C11.3395 1.8356 10.789 1.8356 10.1285 1.94404C7.9266 2.1609 5.83485 2.81143 3.9633 3.78725C5.50455 2.59456 7.15597 1.72717 9.02752 1.29351L8.69723 0.968216C6.60548 1.07665 4.62382 1.72717 2.97247 3.02829C1.10092 6.49792 0.110092 10.4012 0 14.4128C1.65135 16.1477 3.9633 17.232 6.38535 17.232C6.38535 17.232 7.15597 16.3646 7.7064 15.6055C6.27525 15.2803 4.95412 14.5213 4.0734 13.3287C4.84403 13.7623 5.61465 14.1961 6.38535 14.5213C7.37617 14.955 8.367 15.1719 9.35783 15.3887C10.2386 15.4971 11.1193 15.6055 12 15.6055C12.8807 15.6055 13.7614 15.4971 14.6422 15.3887C15.633 15.1719 16.6238 14.955 17.6147 14.5213C18.3854 14.1961 19.156 13.7623 19.9266 13.3287C19.0459 14.5213 17.7248 15.2803 16.2936 15.6055C16.844 16.3646 17.6147 17.232 17.6147 17.232C20.0367 17.232 22.3486 16.1477 24 14.4128C23.8899 10.4012 22.8991 6.49792 21.0275 3.02829ZM8.367 12.4612C7.26608 12.4612 6.27525 11.4854 6.27525 10.2928C6.27525 9.10008 7.26608 8.12426 8.367 8.12426C9.46793 8.12426 10.4587 9.10008 10.4587 10.2928C10.4587 11.4854 9.46793 12.4612 8.367 12.4612ZM15.633 12.4612C14.5321 12.4612 13.5413 11.4854 13.5413 10.2928C13.5413 9.10008 14.5321 8.12426 15.633 8.12426C16.7339 8.12426 17.7247 9.10008 17.7247 10.2928C17.7247 11.4854 16.7339 12.4612 15.633 12.4612Z" fill="white"/>
</svg>
