<svg width="20" height="20" viewBox="0 0 20 20" fill="none" xmlns="http://www.w3.org/2000/svg">
<path fill-rule="evenodd" clip-rule="evenodd" d="M1.09639 13.3789C1.12152 13.169 1.21453 12.9656 1.37542 12.8045L13.8747 0.286441C14.256 -0.0954802 14.8743 -0.0954805 15.2556 0.286441C15.283 0.313839 15.3084 0.342457 15.3318 0.372122C15.3614 0.39559 15.39 0.421017 15.4174 0.448416L19.714 4.75149C20.0953 5.13341 20.0953 5.75263 19.714 6.13455L16.9801 8.87253L16.9794 8.87321L7.22446 18.6429C7.15531 18.7142 7.07494 18.7754 6.98535 18.8234C6.8977 18.8705 6.8044 18.9032 6.7089 18.9215L1.64496 19.9708C0.677959 20.1711 -0.17569 19.3101 0.0312166 18.3431L1.07751 13.4531C1.0829 13.4279 1.0892 13.4032 1.09639 13.3789ZM2.9617 13.9819L2.12913 17.8731L6.04033 17.0627L14.9083 8.18134L11.8309 5.09935L2.9617 13.9819ZM17.6425 5.44302L16.2893 6.79828L13.2119 3.71629L14.5652 2.36103L17.6425 5.44302Z" fill="#498783"/>
</svg>
