<svg width="77" height="77" viewBox="0 0 77 77" fill="none" xmlns="http://www.w3.org/2000/svg">
<rect width="77" height="77" fill="white"/>
<path d="M38.5 44C46.0939 44 52.25 37.8439 52.25 30.25C52.25 22.6561 46.0939 16.5 38.5 16.5C30.9061 16.5 24.75 22.6561 24.75 30.25C24.75 37.8439 30.9061 44 38.5 44Z" stroke="#498783" stroke-linecap="round" stroke-linejoin="round"/>
<path d="M15.0149 65.4501C17.4692 61.4214 20.9186 58.0919 25.0315 55.7815C29.1444 53.4711 33.7825 52.2576 38.4999 52.2576C43.2173 52.2576 47.8554 53.4711 51.9683 55.7815C56.0812 58.0919 59.5306 61.4214 61.9849 65.4501" stroke="#498783" stroke-linecap="round" stroke-linejoin="round"/>
<path d="M38.5 74.25C58.2442 74.25 74.25 58.2442 74.25 38.5C74.25 18.7558 58.2442 2.75 38.5 2.75C18.7558 2.75 2.75 18.7558 2.75 38.5C2.75 58.2442 18.7558 74.25 38.5 74.25Z" stroke="#498783" stroke-linecap="round" stroke-linejoin="round"/>
</svg>
