<svg width="12" height="16" viewBox="0 0 12 16" fill="none" xmlns="http://www.w3.org/2000/svg">
<path fill-rule="evenodd" clip-rule="evenodd" d="M1.69504 7.63228C1.68508 7.51397 1.68 7.39428 1.68 7.27343V4.66363C1.68 2.30507 3.61413 0.393066 6 0.393066C8.38587 0.393066 10.32 2.30507 10.32 4.66363V7.27343C10.32 7.39428 10.3149 7.51397 10.305 7.63228C11.2502 7.68601 12 8.4608 12 9.40871V14.1538C12 15.1365 11.1941 15.9332 10.2 15.9332H1.8C0.805887 15.9332 0 15.1365 0 14.1538V9.40871C0 8.4608 0.749775 7.68601 1.69504 7.63228ZM8.16 4.66363V7.27343C8.16 7.39468 8.14978 7.51357 8.13013 7.62931H3.86986C3.85022 7.51357 3.84 7.39468 3.84 7.27343V4.66363C3.84 3.48435 4.80707 2.52835 6 2.52835C7.19293 2.52835 8.16 3.48435 8.16 4.66363Z" fill="#95B5B3"/>
</svg>
