<svg width="174" height="28" viewBox="0 0 174 28" fill="none" xmlns="http://www.w3.org/2000/svg">
<path d="M7.4248 2.01465C9.69206 2.01465 11.5605 2.28809 13.0303 2.83496C14.5114 3.38184 15.6108 4.20785 16.3286 5.31299C17.0464 6.41813 17.4053 7.8138 17.4053 9.5C17.4053 10.6393 17.1888 11.6362 16.7559 12.4907C16.3229 13.3452 15.7533 14.0687 15.0469 14.6611C14.3405 15.2536 13.5771 15.7378 12.7568 16.1138L20.1055 27H14.2266L8.26221 17.4126H5.44238V27H0.144531V2.01465H7.4248ZM7.04883 6.35547H5.44238V13.106H7.15137C8.90592 13.106 10.1592 12.8154 10.9111 12.2344C11.6745 11.6419 12.0562 10.776 12.0562 9.63672C12.0562 8.45182 11.646 7.60872 10.8257 7.10742C10.0168 6.60612 8.75781 6.35547 7.04883 6.35547ZM30.7183 7.53467C32.4842 7.53467 34.0052 7.87646 35.2812 8.56006C36.5573 9.23226 37.5428 10.2121 38.2378 11.4995C38.9328 12.7869 39.2803 14.3592 39.2803 16.2163V18.7456H26.9585C27.0155 20.2153 27.4541 21.3717 28.2744 22.2148C29.1061 23.0465 30.2568 23.4624 31.7266 23.4624C32.9456 23.4624 34.0622 23.3371 35.0762 23.0864C36.0902 22.8358 37.1326 22.4598 38.2036 21.9585V25.9917C37.258 26.4588 36.2668 26.8006 35.23 27.0171C34.2046 27.2336 32.957 27.3418 31.4873 27.3418C29.5732 27.3418 27.8757 26.9886 26.3945 26.2822C24.9248 25.5758 23.7684 24.4992 22.9253 23.0522C22.0936 21.6053 21.6777 19.7824 21.6777 17.5835C21.6777 15.3504 22.0537 13.4933 22.8057 12.0122C23.569 10.5197 24.6286 9.40316 25.9844 8.6626C27.3402 7.91064 28.9181 7.53467 30.7183 7.53467ZM30.7524 11.2432C29.7384 11.2432 28.8953 11.5679 28.2231 12.2173C27.5623 12.8667 27.1807 13.8864 27.0781 15.2764H34.3926C34.3812 14.5016 34.2388 13.8123 33.9653 13.2085C33.7033 12.6047 33.3045 12.1261 32.769 11.7729C32.245 11.4198 31.5728 11.2432 30.7524 11.2432ZM56.8486 21.3262C56.8486 22.625 56.541 23.7244 55.9258 24.6245C55.3219 25.5132 54.4162 26.1911 53.2085 26.6582C52.0008 27.1139 50.4969 27.3418 48.6968 27.3418C47.3638 27.3418 46.2188 27.2563 45.2617 27.0854C44.3161 26.9146 43.359 26.6297 42.3906 26.231V21.9243C43.4274 22.3914 44.5382 22.7788 45.7231 23.0864C46.9194 23.3826 47.9676 23.5308 48.8677 23.5308C49.8817 23.5308 50.6051 23.3826 51.0381 23.0864C51.4824 22.7788 51.7046 22.38 51.7046 21.8901C51.7046 21.5711 51.6134 21.2863 51.4312 21.0356C51.2603 20.7736 50.8843 20.4831 50.3032 20.1641C49.7222 19.8337 48.8107 19.4064 47.5688 18.8823C46.3726 18.381 45.387 17.874 44.6123 17.3613C43.849 16.8486 43.2793 16.2448 42.9033 15.5498C42.5387 14.8434 42.3564 13.9491 42.3564 12.8667C42.3564 11.1007 43.04 9.77344 44.4072 8.88477C45.7858 7.9847 47.6258 7.53467 49.9272 7.53467C51.1121 7.53467 52.2401 7.6543 53.311 7.89355C54.3934 8.13281 55.5042 8.51449 56.6436 9.03857L55.0713 12.7983C54.1257 12.3882 53.2313 12.0521 52.3882 11.79C51.5565 11.528 50.7077 11.397 49.8418 11.397C49.0785 11.397 48.5031 11.4995 48.1157 11.7046C47.7284 11.9097 47.5347 12.223 47.5347 12.6445C47.5347 12.9521 47.6315 13.2256 47.8252 13.4648C48.0303 13.7041 48.4176 13.9718 48.9873 14.2681C49.5684 14.5529 50.4172 14.9232 51.5337 15.3789C52.616 15.8232 53.556 16.2904 54.3535 16.7803C55.151 17.2588 55.7663 17.8569 56.1992 18.5747C56.6322 19.2811 56.8486 20.1982 56.8486 21.3262ZM76.0747 20.0615C76.0747 21.5426 75.7158 22.8301 74.998 23.9238C74.2803 25.0176 73.2321 25.8607 71.8535 26.4531C70.4863 27.0456 68.8229 27.3418 66.8633 27.3418C65.9974 27.3418 65.1486 27.2848 64.3169 27.1709C63.4966 27.057 62.7048 26.8918 61.9414 26.6753C61.1895 26.4474 60.4717 26.1683 59.7881 25.8379V20.916C60.973 21.4401 62.2035 21.9129 63.4795 22.3345C64.7555 22.756 66.0202 22.9668 67.2734 22.9668C68.1393 22.9668 68.8343 22.8529 69.3584 22.625C69.8939 22.3971 70.2812 22.0838 70.5205 21.6851C70.7598 21.2863 70.8794 20.8306 70.8794 20.3179C70.8794 19.6912 70.6686 19.1558 70.2471 18.7114C69.8255 18.2671 69.2445 17.8512 68.5039 17.4639C67.7747 17.0765 66.9487 16.6606 66.0259 16.2163C65.4448 15.9429 64.8125 15.6125 64.1289 15.2251C63.4453 14.8263 62.7959 14.3421 62.1807 13.7725C61.5654 13.2028 61.0584 12.5135 60.6597 11.7046C60.2723 10.8843 60.0786 9.90446 60.0786 8.76514C60.0786 7.27262 60.4204 5.99658 61.104 4.93701C61.7876 3.87744 62.7617 3.06852 64.0264 2.51025C65.3024 1.94059 66.8063 1.65576 68.5381 1.65576C69.8369 1.65576 71.0731 1.80957 72.2466 2.11719C73.4315 2.41341 74.6676 2.84635 75.9551 3.41602L74.2461 7.53467C73.0954 7.06755 72.0643 6.70866 71.1528 6.45801C70.2414 6.19596 69.3128 6.06494 68.3672 6.06494C67.7064 6.06494 67.1424 6.17318 66.6753 6.38965C66.2082 6.59473 65.855 6.89095 65.6157 7.27832C65.3765 7.6543 65.2568 8.09294 65.2568 8.59424C65.2568 9.18669 65.4277 9.68799 65.7695 10.0981C66.1227 10.4969 66.6468 10.8843 67.3418 11.2603C68.0482 11.6362 68.9255 12.0749 69.9736 12.5762C71.2497 13.18 72.3377 13.8123 73.2378 14.4731C74.1493 15.1226 74.8499 15.8916 75.3398 16.7803C75.8298 17.6576 76.0747 18.7513 76.0747 20.0615ZM88.0718 7.53467C89.8377 7.53467 91.3587 7.87646 92.6348 8.56006C93.9108 9.23226 94.8963 10.2121 95.5913 11.4995C96.2863 12.7869 96.6338 14.3592 96.6338 16.2163V18.7456H84.312C84.369 20.2153 84.8076 21.3717 85.6279 22.2148C86.4596 23.0465 87.6104 23.4624 89.0801 23.4624C90.2992 23.4624 91.4157 23.3371 92.4297 23.0864C93.4437 22.8358 94.4862 22.4598 95.5571 21.9585V25.9917C94.6115 26.4588 93.6203 26.8006 92.5835 27.0171C91.5581 27.2336 90.3105 27.3418 88.8408 27.3418C86.9268 27.3418 85.2292 26.9886 83.748 26.2822C82.2783 25.5758 81.1219 24.4992 80.2788 23.0522C79.4471 21.6053 79.0312 19.7824 79.0312 17.5835C79.0312 15.3504 79.4072 13.4933 80.1592 12.0122C80.9225 10.5197 81.9821 9.40316 83.3379 8.6626C84.6937 7.91064 86.2716 7.53467 88.0718 7.53467ZM88.106 11.2432C87.092 11.2432 86.2489 11.5679 85.5767 12.2173C84.9159 12.8667 84.5342 13.8864 84.4316 15.2764H91.7461C91.7347 14.5016 91.5923 13.8123 91.3188 13.2085C91.0568 12.6047 90.658 12.1261 90.1226 11.7729C89.5985 11.4198 88.9263 11.2432 88.106 11.2432ZM108.699 7.50049C111.263 7.50049 113.228 8.05876 114.595 9.17529C115.962 10.2918 116.646 11.9894 116.646 14.2681V27H113.006L111.998 24.4023H111.861C111.314 25.0859 110.756 25.6442 110.186 26.0771C109.616 26.5101 108.961 26.8291 108.221 27.0342C107.48 27.2393 106.58 27.3418 105.521 27.3418C104.393 27.3418 103.379 27.1253 102.479 26.6924C101.59 26.2594 100.889 25.5986 100.376 24.71C99.8638 23.8099 99.6074 22.6706 99.6074 21.292C99.6074 19.264 100.319 17.7715 101.744 16.8145C103.168 15.846 105.304 15.3105 108.152 15.208L111.468 15.1055V14.2681C111.468 13.2655 111.206 12.5306 110.682 12.0635C110.158 11.5964 109.428 11.3628 108.494 11.3628C107.571 11.3628 106.666 11.4938 105.777 11.7559C104.888 12.0179 104 12.3483 103.111 12.7471L101.385 9.22656C102.399 8.69108 103.532 8.26953 104.786 7.96191C106.05 7.6543 107.355 7.50049 108.699 7.50049ZM111.468 18.1475L109.451 18.2158C107.765 18.2614 106.591 18.5633 105.931 19.1216C105.281 19.6799 104.957 20.4147 104.957 21.3262C104.957 22.1237 105.19 22.6934 105.657 23.0352C106.124 23.3656 106.734 23.5308 107.486 23.5308C108.602 23.5308 109.542 23.2004 110.306 22.5396C111.08 21.8787 111.468 20.9388 111.468 19.7197V18.1475ZM132.693 7.53467C132.955 7.53467 133.257 7.55176 133.599 7.58594C133.952 7.60872 134.237 7.6429 134.454 7.68848L134.061 12.5762C133.89 12.5192 133.645 12.4793 133.326 12.4565C133.018 12.4224 132.75 12.4053 132.522 12.4053C131.85 12.4053 131.195 12.4907 130.557 12.6616C129.931 12.8325 129.367 13.1117 128.865 13.499C128.364 13.875 127.965 14.3763 127.669 15.0029C127.384 15.6182 127.242 16.3758 127.242 17.2759V27H122.029V7.89355H125.977L126.746 11.1064H127.002C127.378 10.457 127.846 9.86458 128.404 9.3291C128.973 8.78223 129.617 8.34928 130.335 8.03027C131.064 7.69987 131.85 7.53467 132.693 7.53467ZM145.682 27.3418C143.79 27.3418 142.178 27 140.845 26.3164C139.512 25.6214 138.498 24.5505 137.803 23.1035C137.108 21.6566 136.761 19.8052 136.761 17.5493C136.761 15.2137 137.154 13.311 137.94 11.8413C138.737 10.3602 139.837 9.27214 141.238 8.57715C142.651 7.88216 144.286 7.53467 146.143 7.53467C147.465 7.53467 148.604 7.66569 149.561 7.92773C150.529 8.17839 151.373 8.48031 152.09 8.8335L150.552 12.8667C149.732 12.5363 148.969 12.2686 148.262 12.0635C147.556 11.847 146.849 11.7388 146.143 11.7388C145.232 11.7388 144.474 11.9552 143.87 12.3882C143.266 12.8097 142.816 13.4478 142.52 14.3022C142.224 15.1567 142.076 16.2277 142.076 17.5151C142.076 18.7798 142.235 19.828 142.554 20.6597C142.873 21.4914 143.335 22.1123 143.938 22.5225C144.542 22.9212 145.277 23.1206 146.143 23.1206C147.225 23.1206 148.188 22.9782 149.031 22.6934C149.874 22.3971 150.695 21.987 151.492 21.4629V25.9233C150.695 26.4246 149.857 26.7835 148.98 27C148.114 27.2279 147.015 27.3418 145.682 27.3418ZM161.148 0.408203V5.82568C161.148 6.77132 161.114 7.67139 161.045 8.52588C160.988 9.38037 160.943 9.98421 160.909 10.3374H161.182C161.592 9.6766 162.076 9.14111 162.635 8.73096C163.204 8.3208 163.831 8.01888 164.515 7.8252C165.198 7.63151 165.933 7.53467 166.719 7.53467C168.098 7.53467 169.3 7.77962 170.325 8.26953C171.351 8.74805 172.148 9.5057 172.718 10.5425C173.287 11.5679 173.572 12.9009 173.572 14.5415V27H168.36V15.8403C168.36 14.4731 168.109 13.4421 167.608 12.7471C167.107 12.0521 166.332 11.7046 165.284 11.7046C164.236 11.7046 163.41 11.9495 162.806 12.4395C162.202 12.918 161.775 13.63 161.524 14.5757C161.273 15.5099 161.148 16.6549 161.148 18.0107V27H155.936V0.408203H161.148Z" fill="#498783"/>
</svg>
