<svg width="55" height="33" viewBox="0 0 55 33" fill="none" xmlns="http://www.w3.org/2000/svg">
<g id="&#208;&#144;&#208;&#186;&#208;&#186;&#208;&#176;&#209;&#131;&#208;&#189;&#209;&#130;">
<path id="&#208;&#161;&#209;&#130;&#209;&#128;&#208;&#181;&#208;&#187;&#208;&#186;&#208;&#176;" d="M54 14L48.2374 19.5118C47.5568 20.1627 46.4432 20.1627 45.7626 19.5118L40 14" stroke="#498783" stroke-width="1.5" stroke-miterlimit="10" stroke-linecap="round" stroke-linejoin="round"/>
<path id="&#208;&#162;&#208;&#181;&#208;&#187;&#208;&#190;" d="M5.53662 26.9365C6.70455 25.0194 8.34601 23.435 10.3032 22.3356C12.2604 21.2362 14.4675 20.6587 16.7123 20.6587C18.9572 20.6587 21.1643 21.2362 23.1215 22.3356C25.0786 23.435 26.7201 25.0194 27.888 26.9365" stroke="#498783" stroke-width="2" stroke-linecap="round" stroke-linejoin="round"/>
<path id="&#208;&#147;&#208;&#190;&#208;&#187;&#208;&#190;&#208;&#178;&#208;&#176;" d="M16.6164 17.8666C20.2301 17.8666 23.1595 14.9371 23.1595 11.3234C23.1595 7.70974 20.2301 4.78027 16.6164 4.78027C13.0027 4.78027 10.0732 7.70974 10.0732 11.3234C10.0732 14.9371 13.0027 17.8666 16.6164 17.8666Z" stroke="#498783" stroke-width="2" stroke-linecap="round" stroke-linejoin="round"/>
<path id="&#208;&#154;&#209;&#128;&#209;&#131;&#208;&#179;" d="M16.5 32C25.0604 32 32 25.0604 32 16.5C32 7.93959 25.0604 1 16.5 1C7.93959 1 1 7.93959 1 16.5C1 25.0604 7.93959 32 16.5 32Z" stroke="#498783" stroke-width="2" stroke-linecap="round" stroke-linejoin="round"/>
</g>
</svg>
