<svg width="20" height="20" viewBox="0 0 20 20" fill="none" xmlns="http://www.w3.org/2000/svg">
<path fill-rule="evenodd" clip-rule="evenodd" d="M10.8 1.6C10.3582 1.6 10 1.95817 10 2.4V3.6C10 4.04183 10.3582 4.4 10.8 4.4H11.6C12.0418 4.4 12.4 4.04183 12.4 3.6V2.4C12.4 1.95817 12.0418 1.6 11.6 1.6H10.8ZM11.6 2.4H10.8V3.6H11.6V2.4Z" fill="#498783"/>
<path d="M5.6 12.4C5.6 12.1791 5.77909 12 6 12H13.6C13.8209 12 14 12.1791 14 12.4C14 12.6209 13.8209 12.8 13.6 12.8H6C5.77909 12.8 5.6 12.6209 5.6 12.4Z" fill="#498783"/>
<path d="M5.6 15.6C5.6 15.3791 5.77909 15.2 6 15.2H13.6C13.8209 15.2 14 15.3791 14 15.6C14 15.8209 13.8209 16 13.6 16H6C5.77909 16 5.6 15.8209 5.6 15.6Z" fill="#498783"/>
<path fill-rule="evenodd" clip-rule="evenodd" d="M2.4 0C1.07452 0 0 1.07452 0 2.4V17.6C0 18.9255 1.07452 20 2.4 20H17.6C18.9255 20 20 18.9255 20 17.6V4.11716C20 3.90498 19.9157 3.7015 19.7657 3.55147L16.4485 0.234315C16.2985 0.0842856 16.095 0 15.8828 0H2.4ZM6.6 1H13.4V4.8C13.4 4.91046 13.3105 5 13.2 5H6.8C6.68954 5 6.6 4.91046 6.6 4.8V1ZM15.4686 1H14.4V4.8C14.4 5.46274 13.8627 6 13.2 6H6.8C6.13726 6 5.6 5.46274 5.6 4.8V1H2.4C1.6268 1 1 1.6268 1 2.4V17.6C1 18.3732 1.6268 19 2.4 19H3.2V9.2C3.2 8.53726 3.73726 8 4.4 8H15.6C16.2627 8 16.8 8.53726 16.8 9.2V19H17.6C18.3732 19 19 18.3732 19 17.6V4.53137C19 4.3192 18.9157 4.11572 18.7657 3.96569L16.0343 1.23431C15.8843 1.08429 15.6808 1 15.4686 1ZM4.2 9.2V19H15.8V9.2C15.8 9.08954 15.7105 9 15.6 9H4.4C4.28954 9 4.2 9.08954 4.2 9.2Z" fill="#498783"/>
<path d="M14.4 1H15.4686C15.6808 1 15.8843 1.08429 16.0343 1.23431L18.7657 3.96569C18.9157 4.11572 19 4.3192 19 4.53137V17.6C19 18.3732 18.3732 19 17.6 19H16.8V9.2C16.8 8.53726 16.2627 8 15.6 8H4.4C3.73726 8 3.2 8.53726 3.2 9.2V19H2.4C1.6268 19 1 18.3732 1 17.6V2.4C1 1.6268 1.6268 1 2.4 1H5.6V4.8C5.6 5.46274 6.13726 6 6.8 6H13.2C13.8627 6 14.4 5.46274 14.4 4.8V1Z" fill="#C9DBDA"/>
</svg>
