<svg width="43" height="43" viewBox="0 0 43 43" fill="none" xmlns="http://www.w3.org/2000/svg">
<path d="M19.8929 39.1786C30.5441 39.1786 39.1786 30.5441 39.1786 19.8929C39.1786 9.24169 30.5441 0.607178 19.8929 0.607178C9.24169 0.607178 0.607178 9.24169 0.607178 19.8929C0.607178 30.5441 9.24169 39.1786 19.8929 39.1786Z" stroke="#000001" stroke-linecap="round" stroke-linejoin="round"/>
<path d="M33.5215 33.5215L42.3929 42.3929" stroke="#000001" stroke-linecap="round" stroke-linejoin="round"/>
<path d="M19.8928 11.8571V7.03564" stroke="#000001" stroke-linecap="round" stroke-linejoin="round"/>
<path d="M15.0715 24.7143C15.0715 27.125 17.2251 27.9286 19.893 27.9286C22.5608 27.9286 24.7144 27.9286 24.7144 24.7143C24.7144 19.8929 15.0715 19.8929 15.0715 15.0715C15.0715 11.8572 17.2251 11.8572 19.893 11.8572C22.5608 11.8572 24.7144 13.0786 24.7144 15.0715" stroke="#000001" stroke-linecap="round" stroke-linejoin="round"/>
<path d="M19.8928 27.9287V32.7501" stroke="#000001" stroke-linecap="round" stroke-linejoin="round"/>
</svg>
