<svg width="22" height="15" viewBox="0 0 22 15" fill="none" xmlns="http://www.w3.org/2000/svg">
<path d="M11.9825 14.2563C4.46596 14.2563 0.178638 8.9144 0 0.0255127H3.76515C3.88882 6.54973 6.66459 9.31326 8.86321 9.88306V0.0255127H12.4085V5.65229C14.5796 5.41013 16.8607 2.84603 17.6302 0.0255127H21.1755C20.8855 1.48831 20.3075 2.87335 19.4776 4.09399C18.6477 5.31463 17.5837 6.34462 16.3523 7.11953C17.7269 7.82759 18.941 8.82978 19.9145 10.06C20.888 11.2902 21.5988 12.7204 22 14.2563H18.0974C17.7373 12.9223 17.0054 11.7281 15.9934 10.8234C14.9814 9.91879 13.7343 9.3439 12.4085 9.17081V14.2563H11.9825V14.2563Z" fill="white"/>
</svg>
